<svg xmlns="http://www.w3.org/2000/svg" xmlns:xlink="http://www.w3.org/1999/xlink" width="120" height="120" viewBox="0 0 120 120">
  <defs>
    <style>
      .cls-1, .cls-9 {
        fill: #fff;
      }

      .cls-1 {
        stroke: #707070;
      }

      .cls-2 {
        fill: none;
      }

      .cls-3 { 
        clip-path: url(#clip-path);
      }

      .cls-4 {
        fill: #2177f4;
      }

      .cls-5 {
        fill: #fdcc9b;
      }

      .cls-6 {
        fill: #fcbc85;
      }

      .cls-7 {
        fill: #401900;
      }

      .cls-8 {
        fill: #3b2519;
      }

      .cls-10 {
        fill: #f7945e;
      }

      .cls-11 {
        clip-path: url(#clip-path-2);
      }

      .cls-12 {
        fill: #25d8ef;
      }

      .cls-13 {
        fill: #d96e27;
        fill-rule: evenodd;
      }
    </style>
    <clipPath id="clip-path">
      <rect id="矩形_10" data-name="矩形 10" class="cls-1" width="120" height="120" transform="translate(752 75)"/>
    </clipPath>
    <clipPath id="clip-path-2">
      <path id="路径_78" data-name="路径 78" class="cls-2" d="M80.609,120h0a5.038,5.038,0,0,0-.322-2.5c-3.752-9.64-18.123-17.786-39.01-17.786S5.36,107.859,2.19,117.483a5.6,5.6,0,0,0-.245,2.511H80.609Z"/>
    </clipPath>
  </defs>
  <g id="男_18" data-name="男 18" transform="translate(-752 -75)">
    <g id="蒙版组_6" data-name="蒙版组 6" class="cls-3">
      <g id="图层_2" data-name="图层 2" transform="translate(771.674 74.998)">
        <g id="图层_1" data-name="图层 1">
          <path id="路径_68" data-name="路径 68" class="cls-4" d="M80.609,120h0a5.038,5.038,0,0,0-.322-2.5c-3.752-9.64-18.123-17.786-39.01-17.786S5.36,107.859,2.19,117.483a5.6,5.6,0,0,0-.245,2.511H80.609Z"/>
          <path id="路径_69" data-name="路径 69" class="cls-5" d="M31.561,73.572H49v25.68a7.779,7.779,0,0,1-7.779,7.779H39.332a7.779,7.779,0,0,1-7.779-7.779V73.572Z"/>
          <path id="路径_70" data-name="路径 70" class="cls-6" d="M30.971,89.307,48.979,89v4.012a30.022,30.022,0,0,1-18.008-3.706Z"/>
          <rect id="矩形_33" data-name="矩形 33" class="cls-6" width="76.214" height="22.564" rx="11.282" transform="translate(1.876 48.03)"/>
          <path id="路径_71" data-name="路径 71" class="cls-5" d="M72.845,54.477c0,19.555-4.119,36.162-32.579,36.162S7.695,74.032,7.695,54.477s14.586-35.4,32.571-35.4S72.845,34.929,72.845,54.477Z"/>
          <path id="路径_72" data-name="路径 72" class="cls-7" d="M24.1,46.851c2.106,0,5.115,1.531,5.115.881,0-2.389-2.3-4.318-5.115-4.318s-5.107,1.929-5.107,4.318C18.988,48.344,22,46.851,24.1,46.851Z"/>
          <ellipse id="椭圆_26" data-name="椭圆 26" class="cls-8" cx="4.142" cy="4.05" rx="4.142" ry="4.05" transform="translate(20.014 52.425)"/>
          <ellipse id="椭圆_27" data-name="椭圆 27" class="cls-9" cx="1.661" cy="1.401" rx="1.661" ry="1.401" transform="translate(20.841 53.336)"/>
          <path id="路径_73" data-name="路径 73" class="cls-7" d="M55.893,46.851c2.1,0,5.115,1.531,5.115.881,0-2.389-2.3-4.318-5.115-4.318s-5.115,1.929-5.115,4.318C50.771,48.344,53.78,46.851,55.893,46.851Z"/>
          <ellipse id="椭圆_28" data-name="椭圆 28" class="cls-8" cx="4.142" cy="4.05" rx="4.142" ry="4.05" transform="translate(51.805 52.425)"/>
          <ellipse id="椭圆_29" data-name="椭圆 29" class="cls-9" cx="1.661" cy="1.401" rx="1.661" ry="1.401" transform="translate(52.624 53.336)"/>
          <path id="路径_74" data-name="路径 74" class="cls-6" d="M39.975,70.249c-2.3,0-4.808-1.669-4.808-1.371,0,2.151,2.152,3.132,4.808,3.132s4.808-.98,4.808-3.132C44.783,68.58,42.257,70.249,39.975,70.249Z"/>
          <path id="路径_75" data-name="路径 75" class="cls-6" d="M39.975,82.431a22.5,22.5,0,0,1-4.525-.85c0,.858,2.029,1.531,4.525,1.531s4.525-.689,4.525-1.531A22.78,22.78,0,0,1,39.975,82.431Z"/>
          <path id="路径_76" data-name="路径 76" class="cls-10" d="M39.975,79.054c-4.548,0-9.578-1.975-9.578-1.73,0,1.746,4.288,3.155,9.578,3.155s9.578-1.409,9.578-3.155C49.554,77.079,44.523,79.054,39.975,79.054Z"/>
          <g id="组_3" data-name="组 3" class="cls-11">
            <path id="路径_77" data-name="路径 77" class="cls-12" d="M40.189,87.216c-6.47,0-11.715,4.594-11.715,10.245s5.245,10.245,11.715,10.245,11.722-4.594,11.722-10.245S46.659,87.216,40.189,87.216Zm0,18.376c-5.13,0-9.287-3.637-9.287-8.124s4.158-8.116,9.287-8.116,9.287,3.637,9.287,8.116-4.158,8.116-9.287,8.116Z"/>
          </g>
          <path id="路径_79" data-name="路径 79" class="cls-13" d="M68.2,11.661S55.235-4.808,28.329,1.4-.674,23.82.138,39.585,5.406,64.6,7.963,63.458,8.422,51.9,8.69,49.5,9.862,36.239,26.247,37.862a67.861,67.861,0,0,0,30.2-4.326s5.574,7.044,9.219,8.376c7.3,2.687,4.142,20.627,7.006,20.627S90.348,21.117,68.2,11.661Z"/>
        </g>
      </g>
    </g>
  </g>
</svg>
