<?xml version="1.0" encoding="UTF-8"?>
<svg width="413px" height="718px" viewBox="0 0 413 718" version="1.1" xmlns="http://www.w3.org/2000/svg" xmlns:xlink="http://www.w3.org/1999/xlink">
    <title>男</title>
    <defs>
        <path d="M172.792214,309.59105 C180.056721,329.227711 181.872848,356.684431 178.240595,391.961209 C172.792214,444.876377 169.159961,470.819566 172.792214,504.609605 C175.213717,527.136298 175.213717,541.922859 172.792214,548.969287 C172.059686,563.479174 172.542479,576.165595 174.240595,587.02855 C175.129175,591.030504 174.280117,594.979071 171.693421,598.874254 C168.926927,601.04443 166.07514,602.129519 163.138061,602.129519 C162.206905,602.129519 164.015047,614.550702 163.138061,614.855699 C153.135964,618.334214 137.139625,617.334214 134.139625,615.594957 C131.139625,613.855699 132.380733,604.439069 131.139625,604.511101 C125.912304,604.814488 124.218484,604.814488 122.615457,599.920396 C117.568582,586.663316 117.503171,564.631089 117.503171,538.918199 C117.503171,581.076402 114.389705,597.710191 108.74721,605.498277 C108.100564,606.498277 104.825365,607.33275 102.344461,607.33275 C101.183923,607.33275 102.359834,615.3547 100.178445,616.487047 C94.5890598,619.388465 72.4421168,618.726548 69.003152,616.511705 C67.4287717,615.497735 66.7566945,608.093492 67.7797633,606.33275 C64.6642034,606.602444 62.9072861,606.131659 62.5090114,604.920396 C59.0707263,594.539374 57.4698774,579.949774 57.7064646,561.151597 C57.9430518,542.35342 57.2335339,528.3098 55.5779109,519.020738 C54.1524897,500.152248 55.1524897,485.203681 58.5779109,474.175035 C62.003332,463.146389 64.9611199,406.839748 67.4512746,305.255113 L172.792214,309.59105 Z" id="path-1"></path>
        <path d="M182.643253,381.230211 L237.987527,508.755113 L255.092019,507.941636 L201.241519,382.240709 C200.416503,378.618347 201.049458,376.209617 203.140385,375.014518 C206.736518,372.959099 218.667585,367.190665 228.846012,366.755113 C231.324364,367.964255 251.247838,412.41738 288.616433,500.114488 L305.791238,494.507066 C269.692901,409.692548 248.196482,362.279658 241.30198,352.268396 C238.352187,347.756121 185.867827,369.240234 182.643253,371.284661 C180.493537,372.647612 180.493537,375.962795 182.643253,381.230211 Z" id="path-3"></path>
        <path d="M82.7274469,411.227373 C96.0783473,454.652442 100.528647,482.912177 96.0783473,496.006578 C88.4704371,502.863023 83.3055516,506.838609 75.6172424,506.838609 C67.9289332,506.838609 8.40989026,499.955308 4.79465588,494.310289 C-8.05348865,483.643785 8.40989026,406.998765 13.6388942,404.046617 C17.1248968,402.078518 40.1544144,404.472103 82.7274469,411.227373 Z" id="path-5"></path>
        <path d="M70.6931832,128.667711 C50.386941,145.138902 36.0167381,216.001207 34.6847926,260.635972 C33.3528471,305.270738 28.206537,350.929137 39.5367385,357.006089 C44.3122154,358.740464 51.2495876,358.299709 60.3488551,355.683824 C62.7591171,350.973537 65.0857373,346.1223 67.3287156,341.130113 C69.571694,336.137925 71.3699111,326.268297 72.7233668,311.521226 C73.3864528,323.719143 82.7479396,330.255438 100.807827,331.130113 C127.897659,332.442125 176.387918,316.6223 180.399636,305.774644 C184.411355,294.926988 190.941261,169.100379 171.792214,139.840952 C152.643168,110.581526 79.3874293,120.039986 70.6931832,128.667711 Z" id="path-7"></path>
        <path d="M297.42698,440.486558 C290.014545,443.422756 259.309467,457.085191 205.311746,481.473863 C193.785658,487.37816 189.304213,497.114488 191.86741,510.682847 C195.712205,531.035386 238.366433,698.725816 245.942605,708.823472 C250.993386,715.555243 273.781798,717.693264 314.307839,715.237535 L339.700418,704.634019 L411.221902,667.145738 C392.775287,590.377509 379.89573,537.580634 372.58323,508.755113 C362.085032,467.371725 355.516474,442.458322 347.382058,440.486558 C327.967996,435.165269 303.001199,437.337144 297.42698,440.486558 Z" id="path-9"></path>
    </defs>
    <g id="页面-1" stroke="none" stroke-width="1" fill="none" fill-rule="evenodd">
        <g id="作品3" transform="translate(-389.000000, -328.000000)">
            <g id="男" transform="translate(389.282004, 328.244887)">
                <polygon id="路径-47" fill="#FFD9AE" points="135.876199 611.169175 136.686257 629.213121 159.939675 629.213121 159.939675 605.390855"></polygon>
                <polygon id="路径-47" fill="#FFD9AE" points="72.5280543 611.245347 72.5280543 632.577379 95.7814723 632.577379 95.7814723 608.755113"></polygon>
                <mask id="mask-2" fill="white">
                    <use xlink:href="#path-1"></use>
                </mask>
                <use id="路径-46" fill="#3B2069" xlink:href="#path-1"></use>
                <path d="M132.578205,376.109476 C129.632448,410.589392 126.437508,437.523032 122.993386,456.910396 C119.549264,476.297759 117.827203,508.098212 117.827203,552.311754 L117.503171,601.839097 C120.42308,530.732326 128.225808,478.896389 140.911355,446.331285 C153.596902,413.766181 150.819185,390.358911 132.578205,376.109476 Z" id="路径-49" fill="#2E1755" mask="url(#mask-2)"></path>
                <path d="M74.7179957,31.7551129 C70.5959254,46.0848655 68.5348903,57.4828148 68.5348903,65.9489606 C66.3287156,67.7551129 60.8771754,71.6755231 62.4157496,74.8596051 C63.0492132,75.6489931 65.0546526,75.9286155 68.4320678,75.6984723 C69.0549781,88.9292666 74.5370061,96.795803 84.878152,99.2980817 C100.389871,103.0515 114.867939,102.713084 128.763894,91.9269879 C138.027864,84.7362573 141.279492,73.6789657 138.518777,58.7551129 L74.7179957,31.7551129 Z" id="路径-27" fill="#FFD9AE"></path>
                <ellipse id="椭圆形" fill="#563131" transform="translate(78.217996, 56.255113) rotate(6.000000) translate(-78.217996, -56.255113) " cx="78.2179957" cy="56.2551129" rx="2.5" ry="6.5"></ellipse>
                <path d="M76.6086207,35.2551129 C69.7053004,35.2551129 67.4108668,21.4465192 77.655984,17.682359 C75.7697535,10.5563825 86.7096949,-0.649183939 106.114968,6.51927309 C106.114968,-1.08228941 134.701394,-4.27564878 138.00364,9.5554059 C138.00364,11.2692731 139.241759,12.1262067 141.717996,12.1262067 C154.490782,14.4627952 160.172423,21.005764 158.762918,31.7551129 C158.274311,36.9569359 157.511778,40.6289736 156.47532,42.7712262 C160.203836,42.8028017 163.136127,43.8452822 165.272195,45.8986676 C170.551004,50.4797223 175.848855,62.8088239 157.20823,78.4846051 C150.214741,83.0223655 145.051329,88.530178 141.717996,95.0080426 L119.455176,92.6564801 C126.813332,83.2092995 125.900938,73.317415 116.717996,62.9808264 C119.455176,52.7551129 109.450418,47.0219493 105.732644,54.6589215 C104.81142,56.6587588 104.062397,59.9671898 103.485574,64.5842145 L99.0998317,64.5842145 C94.7000921,50.7684593 90.8872666,42.4263369 87.6613551,39.5578473 C82.8224879,35.2551129 78.5246364,35.7773297 76.6086207,35.2551129 Z" id="路径-26" fill="#563131"></path>
                <path d="M75.8657029,41.6136909 C81.5785367,40.3029296 85.2009843,41.6605631 86.2209317,45.7814578 C86.3536218,46.3175658 86.026587,46.8597338 85.490479,46.9924239 C84.954371,47.125114 84.412203,46.7980792 84.2795129,46.2619712 C83.5709446,43.3991419 81.0861332,42.4678757 76.3129643,43.5630388 C75.7746667,43.6865467 75.2381675,43.3502931 75.1146597,42.8119956 C74.9911518,42.273698 75.3274054,41.7371988 75.8657029,41.6136909 Z" id="路径-28" fill="#563131" fill-rule="nonzero"></path>
                <mask id="mask-4" fill="white">
                    <use xlink:href="#path-3"></use>
                </mask>
                <use id="路径-50" fill="#AE4F4F" xlink:href="#path-3"></use>
                <path d="M178.64573,375.268486 C181.400276,371.18339 183.918016,370.652565 186.198953,373.676011 C188.510476,379.552772 203.770567,414.48311 231.979226,478.467027 L219.090224,482.552964 L178.64573,375.268486 Z" id="路径-57" fill="#953A3A" mask="url(#mask-4)"></path>
                <path d="M210.40411,370.833726 C210.942757,368.443001 222.866911,364.345628 230.545632,362.733629 C231.811901,362.4678 233.092012,362.4678 234.385964,362.733629 L280.649636,460.332261 L269.835183,466.282457 L228.52073,371.720933 C216.127114,372.531413 210.088241,372.235677 210.40411,370.833726 Z" id="路径-56" fill="#953A3A" mask="url(#mask-4)"></path>
                <path d="M187.546121,341.34105 L182.547097,359.002672 C182.804038,363.335272 183.35364,367.12112 184.195901,370.360215 C185.058775,369.992784 187.48934,369.045315 191.487596,367.517808 C193.470297,371.463446 195.111876,375.029364 196.412332,378.215562 C198.173806,383.18358 202.270486,384.344957 206.235086,382.240709 C209.718484,384.198228 212.734597,383.18358 213.090224,381.78186 C216.40411,383.226548 219.090224,381.67224 219.090224,379.258043 C220.92698,379.78186 221.799295,378.096286 221.799295,374.727335 C221.799295,365.411906 218.061746,357.46605 212.734597,349.40355 C209.183165,344.02855 206.338595,336.901597 204.200888,328.022691 L187.546121,341.34105 Z" id="路径-38" fill="#FFD9AE"></path>
                <path d="M74.7179957,77.7551129 C81.0431785,79.3494259 84.8873323,77.8904416 86.250457,73.3781598 C87.6840602,74.9579938 90.2958766,82.2297223 84.8288356,84.4782575 C81.1841416,85.9772809 77.8138616,83.7362327 74.7179957,77.7551129 Z" id="路径-29" fill="#C76565"></path>
                <path d="M109.369851,56.2551129 C113.649148,56.5961093 114.718972,60.0476508 112.579324,66.6097372" id="路径-30" stroke="#563131" stroke-linecap="round"></path>
                <line x1="113.649148" y1="61.4324251" x2="108.345437" y2="60.7922223" id="路径-31" stroke="#563131" stroke-linecap="round"></line>
                <path d="M170.240595,138.384019 C193.134708,171.457662 205.360899,202.343422 206.919168,231.041302 C208.477436,259.739181 209.54254,278.469388 210.11448,287.231923 C211.861225,314.146472 212.734597,330.267157 212.734597,335.59398 C208.697,350.702867 183.301004,347.339586 182.003152,342.024644 C178.729063,328.436103 174.808211,260.555894 170.240595,138.384019 Z" id="路径-36" fill="#8D8DCD"></path>
                <mask id="mask-6" fill="white">
                    <use xlink:href="#path-5"></use>
                </mask>
                <use id="路径-43" fill="#B1B1D7" xlink:href="#path-5"></use>
                <path d="M71.0692546,414.629136 C76.4259165,463.222235 74.0207585,490.434149 63.8537806,496.264879 C53.6868028,502.095608 41.094113,503.651597 26.0757112,500.932847 L73.7179957,513.609605 L108.826838,500.932847 L85.6633082,404.973863 L71.0692546,414.629136 Z" id="路径-44" fill="#8D8DCD" mask="url(#mask-6)"></path>
                <path d="M20.7453395,412.04564 C39.3648222,418.306406 71.5301295,417.166002 75.1686793,416.518052 C83.6985865,414.421617 86.5106574,410.153925 75.6172424,406.729234 C58.5532216,401.364618 40.263184,400.156322 21.5107203,401.421617 C9.01766224,402.264568 11.4073864,408.905771 20.7453395,412.04564 Z" id="路径-42" fill="#C4C4EE"></path>
                <path d="M53.0613454,375.34141 C62.9696526,377.677129 68.5995875,382.90878 69.95115,391.036363 C71.9784938,403.227737 70.7914821,407.127183 69.95115,409.363267 C68.340066,413.174302 26.2189723,410.846666 26.2189723,405.060289 C25.6642848,399.889879 26.2189723,383.877672 37.218484,373.752183 C44.5514918,367.001858 49.8324456,367.5316 53.0613454,375.34141 Z M38.3769313,382.712144 C34.6721787,387.144623 33.0163356,392.542409 33.409402,398.905504 C37.3283473,399.577053 47.320372,400.306708 63.3854762,401.094468 C64.6078069,394.955145 63.4373154,389.217434 59.8740016,383.881334 C56.3106878,378.545233 49.1449977,378.155504 38.3769313,382.712144 Z" id="形状结合" fill="#8D8DCD"></path>
                <path d="M39.7179957,355.34105 L31.854661,366.871812 C29.6610118,370.13152 28.5641871,372.792653 28.5641871,374.855211 C28.5641871,376.06683 29.1708227,382.390522 30.2262965,383.160386 C30.6809964,383.492045 31.5571179,382.119649 32.854661,379.043199 C30.5291059,388.299058 32.2724506,392.926988 38.0846949,392.926988 C39.1735621,392.666246 40.0124293,392.202541 40.6012965,391.535875 C41.7853084,392.675523 42.9672746,393.245347 44.1471949,393.245347 C45.8416235,393.245347 47.5279842,392.139228 49.206277,389.926988 C50.350216,390.90911 51.5169452,391.445406 52.7064646,391.535875 C54.185565,391.648368 55.4579634,390.595633 56.5236598,388.377672 C57.6828395,389.373765 58.956928,389.373765 60.3459254,388.377672 C62.0519801,386.717027 64.8996364,376.984605 58.668191,355.34105 C54.5138942,340.912014 48.1971624,340.912014 39.7179957,355.34105 Z" id="路径-37" fill="#FFD9AE"></path>
                <mask id="mask-8" fill="white">
                    <use xlink:href="#path-7"></use>
                </mask>
                <use id="路径-33" fill="#B1B1D7" xlink:href="#path-7"></use>
                <path d="M82.7274469,196.958238 C76.2187444,268.906806 72.6485367,310.400295 72.0168239,321.438707 C71.385111,332.477118 76.5892126,340.835 87.6291285,346.512353 L82.7274469,196.958238 Z" id="路径-45" fill="#8D8DCD" mask="url(#mask-8)"></path>
                <path d="M88.1459485,95.0080426 C78.2179957,98.857652 73.9431407,120.005113 75.0891131,124.755113 C76.2350856,129.505113 129.139382,130.005113 145.912332,124.755113 C148.300027,123.366441 160.469515,103.763002 141.717996,95.0080426 C122.966477,86.2530835 98.0739014,91.1584332 88.1459485,95.0080426 Z" id="路径-32" fill="#DB7070"></path>
                <path d="M92.1047145,124.755113 C97.9067897,151.42178 101.375051,183.765367 102.5095,221.785875 C103.077615,227.790025 127.546365,225.125963 128.467263,214.134263 C129.388162,203.142564 129.671763,140.19949 115.827203,124.755113 C106.597497,114.458862 98.6900009,114.458862 92.1047145,124.755113 Z" id="路径-34" fill="#DB7070"></path>
                <line x1="103.391336" y1="226.876207" x2="102.061257" y2="237.089586" id="路径-35" stroke="#DB7070" stroke-width="3" stroke-linecap="round"></line>
                <line x1="108.048074" y1="227.755113" x2="108.048074" y2="236.11107" id="路径-35" stroke="#DB7070" stroke-width="3" stroke-linecap="round"></line>
                <line x1="113.717996" y1="227.755113" x2="113.717996" y2="236.11107" id="路径-35" stroke="#DB7070" stroke-width="3" stroke-linecap="round"></line>
                <line x1="118.717996" y1="226.755113" x2="118.717996" y2="235.11107" id="路径-35" stroke="#DB7070" stroke-width="3" stroke-linecap="round"></line>
                <line x1="123.717996" y1="224.755113" x2="124.943093" y2="233.510972" id="路径-35" stroke="#DB7070" stroke-width="3" stroke-linecap="round"></line>
                <line x1="128.717996" y1="222.755113" x2="130.344461" y2="230.933091" id="路径-35" stroke="#DB7070" stroke-width="3" stroke-linecap="round"></line>
                <path d="M202.350808,370.647203 C202.066812,369.801439 200.604226,369.304307 201.563455,372.033311 C203.226772,376.58174 204.783983,379.984206 206.235086,382.240709 C205.159524,378.987616 203.864765,375.123114 202.350808,370.647203 Z" id="路径-39" fill="#F9C27F"></path>
                <path d="M208.827285,369.424071 C208.543288,368.578307 207.080703,368.081176 208.039931,370.81018 C209.703249,375.358609 211.38668,379.015835 213.090224,381.78186 C211.762221,378.019246 210.341241,373.899983 208.827285,369.424071 Z" id="路径-39" fill="#F9C27F"></path>
                <path d="M214.827285,367.424071 C214.543288,366.578307 213.080703,366.081176 214.039931,368.81018 C215.61605,372.220409 217.299481,375.70303 219.090224,379.258043 C217.914012,375.621324 216.493032,371.676667 214.827285,367.424071 Z" id="路径-39" fill="#F9C27F"></path>
                <path d="M128.937801,623.507066 L131.400692,640.018785 C113.654545,644.691962 102.593647,648.417548 98.2179957,651.195543 C88.7444415,656.348863 87.3205348,664.269761 88.7444415,671.322984 C89.6937127,676.025132 117.588244,676.025132 172.428035,671.322984 L170.428035,643.02855 L176.88409,620.755113 L128.937801,623.507066 Z" id="路径-48" fill="#3B2069"></path>
                <path d="M59.3834769,626.507066 L61.8463675,646.018785 C44.1002214,650.691962 33.0393228,654.417548 28.6636717,657.195543 C19.1901175,662.348863 17.7662108,670.269761 19.1901175,677.322984 C20.1393887,682.025132 48.03392,682.025132 102.873711,677.322984 L100.873711,649.02855 L107.329766,623.755113 L59.3834769,626.507066 Z" id="路径-48" fill="#3B2069"></path>
                <mask id="mask-10" fill="white">
                    <use xlink:href="#path-9"></use>
                </mask>
                <use id="路径-51" fill="#D06565" xlink:href="#path-9"></use>
                <polygon id="路径-53" fill="#E57777" mask="url(#mask-10)" points="191.167944 488.974287 262.811746 488.974287 360.717996 444.915269 308.425027 424.40355"></polygon>
                <path d="M279.813699,477.710191 L263.717996,485.569078 C253.772032,490.971096 250.957579,501.069566 255.274636,515.864488 C271.010649,583.073016 287.798998,642.142667 307.224951,707.428882 C309.122332,713.805549 311.38922,716.736629 314.025613,716.222124 L435.048074,666.573472 C410.091908,590.941635 383.516387,518.21019 355.321511,448.379136 C353.756245,444.502396 350.571623,443.526047 345.767647,445.450089 L279.813699,477.710191 Z" id="路径-52" fill="#AE4F4F" mask="url(#mask-10)"></path>
                <polygon id="路径-54" fill="#AE4F4F" mask="url(#mask-10)" points="265.802468 471.261949 305.852761 452.570054 292.701394 452.570054 250.402566 472.412339"></polygon>
                <polygon id="路径-55" fill="#AE4F4F" mask="url(#mask-10)" points="227.561746 562.897691 239.190852 562.897691 254.991433 617.301988 243.317605 617.301988"></polygon>
            </g>
        </g>
    </g>
</svg>